<svg width="14" height="8" viewBox="0 0 14 8" fill="none" xmlns="http://www.w3.org/2000/svg">
<path fill-rule="evenodd" clip-rule="evenodd" d="M7.70685 7.70701C7.51933 7.89448 7.26502 7.99979 6.99985 7.99979C6.73469 7.99979 6.48038 7.89448 6.29285 7.70701L0.635855 2.05001C0.540345 1.95776 0.464162 1.84742 0.411753 1.72541C0.359344 1.60341 0.331758 1.47219 0.330604 1.33941C0.32945 1.20663 0.354752 1.07495 0.405033 0.952054C0.455314 0.829157 0.529567 0.717505 0.62346 0.623612C0.717353 0.529719 0.829004 0.455466 0.951901 0.405185C1.0748 0.354904 1.20648 0.329603 1.33926 0.330757C1.47204 0.331911 1.60325 0.359497 1.72526 0.411906C1.84726 0.464315 1.95761 0.540497 2.04985 0.636007L6.99985 5.58601L11.9499 0.636007C12.1385 0.453849 12.3911 0.353055 12.6533 0.355333C12.9155 0.357611 13.1663 0.46278 13.3517 0.648188C13.5371 0.833596 13.6423 1.08441 13.6445 1.34661C13.6468 1.6088 13.546 1.86141 13.3639 2.05001L7.70685 7.70701Z" fill="#919191"/>
</svg>
